<svg version="1.1" id="Layer_1" xmlns="http://www.w3.org/2000/svg" xmlns:xlink="http://www.w3.org/1999/xlink" x="0px" y="0px"
	 width="100%" viewBox="0 0 1388 1387" enable-background="new 0 0 1388 1387" xml:space="preserve">
<path fill="#FFFFFE" opacity="1.000000" stroke="none" 
	d="
M657.000000,1388.000000 
	C438.402710,1388.000000 219.805389,1388.000000 1.000000,1388.000000 
	C1.000000,1166.306519 1.000000,944.612976 1.275041,722.460144 
	C1.915234,722.023621 2.280386,722.046448 2.712730,722.475342 
	C2.789220,724.251343 2.798519,725.621094 2.555596,727.307495 
	C2.317293,731.085938 2.331211,734.547852 2.275949,738.427124 
	C2.478488,741.883972 2.633611,744.940186 3.066435,747.956543 
	C3.318827,749.715454 4.015649,751.410522 4.607811,753.433228 
	C4.705629,754.148987 4.708143,754.565857 4.479119,755.307983 
	C5.244410,766.703674 6.225981,777.775391 7.291482,788.839111 
	C7.336065,789.302002 8.163213,789.689636 8.713631,790.416687 
	C8.814635,791.141968 8.827795,791.562805 8.606298,792.290588 
	C8.335486,794.407532 8.006003,796.269165 8.313477,798.018799 
	C9.711089,805.971802 11.178814,813.916199 12.837023,821.818420 
	C14.045454,827.577148 15.590249,833.265198 17.095366,839.359680 
	C17.426708,840.537781 17.687000,841.332520 17.863279,842.145447 
	C31.335777,904.274231 53.071434,963.372620 82.916275,1019.494263 
	C110.185173,1070.771973 143.478439,1117.812866 182.517807,1160.788208 
	C189.504990,1168.479980 196.796616,1175.895020 204.550964,1184.074219 
	C204.820831,1182.319580 204.979523,1181.710815 204.999405,1181.097534 
	C205.668488,1160.453735 206.367081,1139.810669 206.972534,1119.165039 
	C208.002808,1084.031982 208.952698,1048.896729 209.974869,1013.763489 
	C210.943695,980.463379 211.949524,947.164368 212.961884,913.865540 
	C213.943848,881.567505 214.950562,849.270203 215.954102,816.972839 
	C217.293884,773.853455 218.641647,730.734375 219.984940,687.615173 
	C220.970352,655.983643 221.957397,624.352295 222.937668,592.720642 
	C224.284317,549.266357 225.797348,505.816376 226.921875,462.356323 
	C228.132858,415.555176 229.219772,368.748077 229.912598,321.936920 
	C230.583374,276.615509 230.687378,231.285690 231.022537,185.959427 
	C231.034149,184.389191 230.854767,182.817566 230.702927,180.177551 
	C228.653061,182.046402 227.353546,183.227875 226.057571,184.413193 
	C202.041611,206.378815 179.841919,230.054398 159.172653,255.189133 
	C122.505478,299.777985 91.714943,348.119843 67.478668,400.490143 
	C57.853470,421.288483 49.822300,442.824463 40.776134,464.226654 
	C39.385750,468.032776 38.284641,471.636871 37.162056,475.440491 
	C37.140587,475.640045 36.971043,476.003845 36.694622,476.218689 
	C34.320019,482.176910 31.956627,487.840942 30.207262,493.688721 
	C28.798231,498.398804 28.131348,503.330963 27.123672,508.381836 
	C27.112156,508.599091 26.959276,509.006439 26.682125,509.226410 
	C25.518799,512.405579 24.500820,515.332642 23.769211,518.329590 
	C20.540949,531.553772 17.280437,544.772156 14.290844,558.051025 
	C13.417534,561.929993 13.400952,566.001953 13.004374,570.362549 
	C12.905843,571.483521 12.794621,572.227478 12.392991,573.171631 
	C11.692042,576.581543 11.281501,579.791138 10.889802,583.332275 
	C10.829043,584.097778 10.749444,584.531616 10.372590,585.182556 
	C8.106599,600.172974 6.131228,614.945557 4.205514,629.724548 
	C4.154833,630.113403 4.645067,630.572815 4.911010,631.391479 
	C4.828241,632.822266 4.717508,633.860840 4.255075,635.050903 
	C3.290214,641.055115 2.492265,646.896667 2.139752,652.765076 
	C1.956086,655.822510 2.557637,658.927185 2.845014,662.402649 
	C2.806264,663.840210 2.727011,664.885559 2.372286,665.926880 
	C1.731209,665.948486 1.365604,665.974243 1.000000,666.000000 
	C1.000000,444.403717 1.000000,222.807404 1.000000,1.000000 
	C219.360138,1.000000 437.720367,1.000000 656.544312,1.266580 
	C656.977966,1.885587 656.947876,2.238014 656.515625,2.670792 
	C654.751709,2.778084 653.389832,2.805026 651.767090,2.613305 
	C650.007629,2.577658 648.508911,2.760672 646.581970,2.990557 
	C627.979126,5.059384 609.724060,6.536818 591.645325,9.207567 
	C541.648193,16.593586 493.048584,29.503944 445.902374,47.742264 
	C372.255646,76.232193 305.472748,116.260262 245.347275,167.423340 
	C243.576706,168.929993 241.921280,170.571960 239.280746,173.011246 
	C242.202820,173.011246 243.528732,173.008301 244.854645,173.011688 
	C334.345184,173.240158 423.835663,173.555222 513.326355,173.659821 
	C554.819031,173.708328 596.312378,173.263535 637.805237,173.281830 
	C642.773376,173.284012 645.996155,171.860657 649.096130,167.903671 
	C697.658447,105.915596 759.971375,62.068882 831.393066,30.354710 
	C839.135315,26.916817 847.091248,23.960022 855.842834,20.417938 
	C817.989563,11.211012 780.653992,6.034590 742.767090,2.719996 
	C741.353149,2.621907 740.167480,2.746902 738.549072,2.891748 
	C736.095703,2.776286 734.074951,2.640972 732.075562,2.253629 
	C732.064636,1.667733 732.032349,1.333866 732.000000,0.999999 
	C950.930115,1.000000 1169.860229,1.000000 1389.000000,1.000000 
	C1389.000000,219.693481 1389.000000,438.387024 1388.729004,657.546021 
	C1388.101074,657.967468 1387.744263,657.923462 1387.320801,657.465942 
	C1387.207397,655.379211 1387.160400,653.705994 1387.310791,651.821594 
	C1387.358521,650.738220 1387.208740,649.866089 1387.034424,648.558167 
	C1380.084106,549.690735 1353.973511,456.776947 1307.192505,368.657898 
	C1306.131226,371.084869 1305.498169,372.400116 1304.971558,373.756622 
	C1293.944580,402.164062 1278.013062,427.505981 1257.459839,449.980499 
	C1227.851074,482.357239 1193.324341,508.826935 1155.643677,530.720764 
	C1109.060059,557.787720 1061.486816,583.165894 1014.111145,608.849609 
	C983.801514,625.281372 953.556702,641.721619 926.116333,662.804626 
	C899.083130,683.574829 874.766296,706.879883 858.238647,737.144531 
	C839.241943,771.930725 834.099670,808.501038 847.147522,846.423767 
	C858.641113,879.829163 882.270996,903.283691 912.189636,920.698669 
	C938.444214,935.980774 967.248657,942.408142 997.391602,944.343994 
	C1029.589722,946.411865 1060.795166,941.999756 1091.194946,931.667236 
	C1127.620483,919.286621 1160.225220,899.725708 1191.263916,877.361206 
	C1235.851074,845.234497 1276.398438,808.399963 1315.524902,769.973938 
	C1339.653687,746.277100 1363.225098,722.012756 1387.373291,698.009399 
	C1388.133179,698.010376 1388.566650,698.005188 1389.000000,698.000000 
	C1389.000000,927.927979 1389.000000,1157.855957 1389.000000,1388.000000 
	C1172.973145,1388.000000 956.946289,1388.000000 740.705200,1387.718506 
	C742.677124,1386.769531 744.863281,1386.102295 747.434814,1385.333984 
	C748.878723,1385.215820 749.937317,1385.198608 751.314880,1385.432007 
	C757.458435,1384.955322 763.283020,1384.227905 769.408386,1383.382812 
	C770.137817,1383.259766 770.566345,1383.254272 771.310364,1383.485229 
	C776.120972,1383.061157 780.616089,1382.400757 785.402222,1381.582031 
	C786.130554,1381.388428 786.567871,1381.353027 787.322937,1381.542114 
	C802.130981,1379.759033 816.719360,1378.276855 831.083679,1375.594482 
	C845.120605,1372.973389 858.960205,1369.251587 872.819397,1365.748047 
	C877.321899,1364.609863 881.613342,1362.636597 886.194031,1360.962158 
	C886.386719,1360.879150 886.805969,1360.864014 887.192017,1360.932617 
	C889.382019,1360.333618 891.185974,1359.666016 893.161499,1358.907837 
	C893.333069,1358.817261 893.720642,1358.799805 894.137695,1358.879639 
	C899.364380,1357.313477 904.174072,1355.667358 908.993530,1354.001221 
	C909.003357,1353.981445 909.042664,1354.001831 909.450562,1354.041260 
	C913.567932,1352.725342 917.277405,1351.370117 921.146790,1349.910034 
	C921.306763,1349.805176 921.685974,1349.755737 922.011841,1349.832031 
	C922.896301,1349.617798 923.454773,1349.327393 924.014526,1349.015747 
	C924.015869,1348.994507 924.040527,1349.029907 924.441406,1349.063477 
	C928.228271,1347.744629 931.614258,1346.392090 935.175598,1344.948486 
	C935.350952,1344.857300 935.744507,1344.820801 936.102783,1344.891846 
	C937.643066,1344.338867 938.825073,1343.715088 940.201050,1343.001709 
	C940.394897,1342.912231 940.819946,1342.871460 941.202332,1342.929443 
	C943.725891,1342.013184 945.867065,1341.038818 948.018799,1340.031982 
	C948.029297,1339.999634 948.084595,1340.039429 948.468750,1340.067017 
	C950.244446,1339.419067 951.635986,1338.743530 953.031067,1338.033447 
	C953.034668,1337.998901 953.084717,1338.047119 953.445190,1338.073853 
	C955.204285,1337.418457 956.602783,1336.736328 958.165710,1335.947876 
	C958.330139,1335.841553 958.717224,1335.782349 959.044434,1335.846191 
	C959.900818,1335.583496 960.429993,1335.256836 960.973389,1334.966797 
	C960.987671,1335.003540 960.942810,1334.937378 961.325562,1334.980469 
	C964.471375,1333.687500 967.234436,1332.351318 970.154480,1330.916748 
	C970.311462,1330.818359 970.679749,1330.777344 971.054443,1330.838379 
	C973.278687,1329.919189 975.128235,1328.938965 977.098450,1327.842285 
	C977.219116,1327.725708 977.544800,1327.645264 977.833374,1327.695312 
	C978.415405,1327.510010 978.708984,1327.274780 979.165222,1326.943604 
	C979.327881,1326.847534 979.703247,1326.805420 979.978638,1326.822754 
	C980.517029,1326.600586 980.779968,1326.361084 981.057251,1326.081543 
	C981.071594,1326.041626 981.143066,1326.087402 981.513794,1326.102783 
	C983.917419,1325.070923 985.950317,1324.023682 987.991577,1322.988281 
	C988.000000,1323.000000 987.980347,1322.977539 988.357910,1323.011963 
	C990.499207,1322.053101 992.262817,1321.059692 994.028503,1320.031982 
	C994.030579,1319.997803 994.081726,1320.043457 994.462708,1320.061523 
	C997.254456,1318.772095 999.665283,1317.464600 1002.094849,1316.109375 
	C1002.113647,1316.061523 1002.199829,1316.117676 1002.573120,1316.119385 
	C1005.319702,1314.793945 1007.693115,1313.466553 1010.078247,1312.095947 
	C1010.089966,1312.052490 1010.167847,1312.097168 1010.526306,1312.105713 
	C1011.926514,1311.430664 1012.968262,1310.747070 1014.157104,1309.946655 
	C1014.304199,1309.829834 1014.670105,1309.745117 1015.040100,1309.818115 
	C1016.280151,1309.276611 1017.150208,1308.662109 1018.017029,1308.020630 
	C1018.013794,1307.993530 1018.054077,1308.030518 1018.351440,1308.043945 
	C1019.101074,1307.715820 1019.553284,1307.374146 1020.149048,1306.929810 
	C1020.292603,1306.827026 1020.640564,1306.766724 1021.021118,1306.818848 
	C1023.938477,1305.270508 1026.475342,1303.670166 1029.158936,1301.956299 
	C1029.305664,1301.842773 1029.666992,1301.757812 1029.946289,1301.765381 
	C1030.484009,1301.520020 1030.742676,1301.266968 1031.138306,1300.909668 
	C1031.275391,1300.805176 1031.614868,1300.745605 1031.905518,1300.758423 
	C1032.450562,1300.500000 1032.705200,1300.228760 1032.979858,1299.978760 
	C1033.000000,1300.000000 1032.967041,1299.952393 1033.275635,1299.971924 
	C1034.032715,1299.625000 1034.481323,1299.258789 1034.958984,1298.944580 
	C1034.988037,1298.996704 1034.906372,1298.909546 1035.156128,1298.890869 
	C1035.621094,1298.629761 1035.836426,1298.387573 1036.067383,1298.097168 
	C1036.083008,1298.048950 1036.171875,1298.097290 1036.457275,1298.093018 
	C1037.160278,1297.737671 1037.577881,1297.386475 1038.139893,1296.928833 
	C1038.284302,1296.822266 1038.636230,1296.750732 1038.922241,1296.753540 
	C1039.450073,1296.480591 1039.691772,1296.204712 1039.964355,1295.963623 
	C1039.995117,1295.998535 1039.944458,1295.920898 1040.288574,1295.960205 
	C1041.438965,1295.390381 1042.245361,1294.781372 1043.209229,1294.048096 
	C1043.366821,1293.923950 1043.754517,1293.820557 1044.127930,1293.876343 
	C1045.310913,1293.255371 1046.120483,1292.578613 1047.092773,1291.676514 
	C1047.771240,1291.260864 1048.286987,1291.070679 1049.070068,1290.863037 
	C1049.566528,1290.586670 1049.795776,1290.327881 1050.214478,1289.855225 
	C1050.922241,1289.419067 1051.440430,1289.196655 1052.201782,1288.948975 
	C1052.770752,1288.790771 1052.982178,1288.555176 1053.099609,1288.156006 
	C1053.119751,1288.095215 1053.241943,1288.133911 1053.608521,1288.125244 
	C1055.984741,1286.749878 1057.994507,1285.383301 1060.002197,1284.007202 
	C1060.000000,1283.997681 1060.018555,1284.007935 1060.363892,1284.029297 
	C1061.482300,1283.398560 1062.255493,1282.746582 1063.158447,1281.970947 
	C1063.288086,1281.847168 1063.632812,1281.749390 1063.920898,1281.754761 
	C1064.461670,1281.488770 1064.714233,1281.217285 1065.179688,1280.687012 
	C1127.335693,1241.109497 1181.796387,1193.284912 1228.702637,1136.856201 
	C1277.430542,1078.235962 1315.351807,1013.285767 1342.783569,942.194702 
	C1343.708130,939.798462 1343.932251,937.131897 1344.482788,934.591370 
	C1341.919556,935.312439 1340.190308,936.490295 1338.752197,937.954163 
	C1308.790649,968.452026 1276.615234,996.258179 1240.744629,1019.701599 
	C1181.683105,1058.301514 1116.895386,1077.995361 1046.415771,1078.876343 
	C1030.937012,1079.069824 1015.445679,1078.361450 999.961487,1078.009033 
	C975.799866,1077.459106 951.868103,1074.789795 928.203369,1069.883789 
	C868.524109,1057.511353 816.247375,1031.306885 773.493652,987.197205 
	C742.419556,955.137695 720.412781,917.910950 708.565979,874.769470 
	C702.772217,853.670837 699.741089,832.194153 698.617554,810.346313 
	C697.535645,789.306030 698.740417,768.437622 701.634949,747.630310 
	C702.628723,740.486389 704.022766,733.398132 705.328247,725.730591 
	C561.811646,723.342590 419.140808,720.863342 276.254791,726.507690 
	C276.133087,727.949219 275.963928,729.245789 275.922791,730.546448 
	C275.301453,750.190735 274.607056,769.833252 274.105530,789.480713 
	C272.689941,844.936951 271.291473,900.393738 270.012177,955.853210 
	C269.236053,989.497742 268.457458,1023.145264 268.098053,1056.795898 
	C267.464539,1116.113892 267.114777,1175.435303 266.844360,1234.756104 
	C266.834259,1236.966431 268.383911,1239.770264 270.099548,1241.288208 
	C274.575562,1245.247925 279.352509,1248.945435 284.355713,1252.218384 
	C308.846680,1268.238892 333.450562,1284.086792 358.142883,1300.245361 
	C358.616028,1300.597290 358.960846,1300.699707 359.491272,1300.833252 
	C359.676910,1300.864380 359.992188,1301.070068 360.136292,1301.316162 
	C360.801605,1301.739746 361.322815,1301.917358 361.879761,1302.072876 
	C361.915558,1302.050903 361.934601,1302.132690 362.005554,1302.468018 
	C363.730103,1303.525635 365.383698,1304.247925 367.320190,1305.021240 
	C368.069214,1305.386353 368.535370,1305.700684 369.137085,1306.262817 
	C369.622253,1306.603882 369.971863,1306.697021 370.504211,1306.815186 
	C370.687012,1306.839966 370.999969,1307.035278 371.149536,1307.282837 
	C371.827118,1307.705322 372.355164,1307.880249 372.918823,1308.037476 
	C372.954407,1308.019775 372.979736,1308.095093 373.114197,1308.326294 
	C373.579559,1308.651978 373.910400,1308.746460 374.440125,1308.875854 
	C374.638977,1308.910767 374.989197,1309.111816 375.138702,1309.351318 
	C375.807587,1309.757324 376.326996,1309.923706 376.882019,1310.068848 
	C376.917633,1310.047607 376.939636,1310.127563 377.006958,1310.466309 
	C383.001099,1313.568115 388.927948,1316.331299 394.889587,1319.069336 
	C394.924377,1319.044189 394.959137,1319.122681 395.115662,1319.362061 
	C395.801025,1319.761230 396.329926,1319.921143 396.893250,1320.058838 
	C396.927704,1320.036743 396.947083,1320.116333 397.023865,1320.472290 
	C398.177490,1321.134399 399.254333,1321.440552 400.516174,1321.786255 
	C400.701141,1321.825806 401.000183,1322.057373 401.147491,1322.297852 
	C401.648804,1322.611938 402.002777,1322.685425 402.533600,1322.782471 
	C402.710449,1322.806152 403.006256,1323.005737 403.163635,1323.313477 
	C404.564026,1324.062744 405.807068,1324.504272 407.028168,1324.973877 
	C407.006195,1325.002197 407.038422,1324.939697 407.186920,1325.264404 
	C409.337402,1326.308228 411.339386,1327.027222 413.521545,1327.784180 
	C413.701691,1327.822021 413.993774,1328.046143 414.056091,1328.401123 
	C416.168884,1329.439453 418.219360,1330.122803 420.464996,1330.832031 
	C420.660156,1330.857910 420.999786,1331.057129 421.167908,1331.289307 
	C421.698914,1331.572388 422.061737,1331.623169 422.593262,1331.709961 
	C422.761902,1331.745972 423.019897,1331.974976 423.173889,1332.247803 
	C423.911499,1332.662476 424.495087,1332.804077 425.312042,1332.969482 
	C425.545380,1332.993164 425.982117,1333.164307 426.146240,1333.401123 
	C426.849670,1333.771362 427.389008,1333.904541 427.951904,1334.017334 
	C427.975464,1333.996704 427.991241,1334.057251 428.154480,1334.312012 
	C428.883698,1334.704956 429.449677,1334.843262 430.007812,1334.990723 
	C430.000000,1335.000000 430.012299,1334.980713 430.193787,1335.251709 
	C431.205872,1335.708862 432.036469,1335.895142 432.898956,1336.055664 
	C432.930817,1336.029907 432.949493,1336.109619 433.029449,1336.459473 
	C435.405060,1337.538574 437.700745,1338.267700 439.998199,1338.998413 
	C440.000000,1339.000000 440.005585,1338.999634 440.197876,1339.264282 
	C441.224609,1339.701660 442.059021,1339.874512 442.926971,1340.027588 
	C442.960510,1340.007690 442.995148,1340.077515 443.161133,1340.330566 
	C443.896851,1340.707397 444.466614,1340.830933 445.019196,1340.977295 
	C445.002014,1341.000000 445.031036,1340.952759 445.219421,1341.223755 
	C446.248840,1341.673340 447.089905,1341.851929 447.953369,1342.011475 
	C447.975739,1341.992310 447.989075,1342.049683 448.068542,1342.420166 
	C449.554077,1343.102173 450.960144,1343.413940 452.545166,1343.755859 
	C452.724091,1343.785889 453.014954,1344.002930 453.192993,1344.271240 
	C453.981934,1344.641357 454.592834,1344.743042 455.412354,1344.861572 
	C455.620911,1344.878540 456.005981,1345.042480 456.180450,1345.354492 
	C458.692291,1346.352295 461.029663,1347.038208 463.546021,1347.751953 
	C463.725006,1347.779663 464.014984,1347.996704 464.199219,1348.267822 
	C465.006592,1348.629517 465.629700,1348.719971 466.549500,1348.834961 
	C467.227264,1348.967041 467.608307,1349.074951 468.163757,1349.489990 
	C470.857819,1350.550415 473.377502,1351.303589 475.924683,1352.032471 
	C475.952240,1352.008057 475.970062,1352.079346 476.050171,1352.438721 
	C479.869049,1353.777954 483.607849,1354.757690 487.530029,1355.760864 
	C487.713409,1355.784302 488.014191,1355.999268 488.049347,1356.318970 
	C489.055847,1356.755859 490.027191,1356.872925 491.326843,1356.996704 
	C492.075867,1357.115112 492.496613,1357.226807 493.016541,1357.673096 
	C503.764618,1361.308228 514.283752,1365.140259 525.094116,1367.779541 
	C539.674011,1371.338989 554.440918,1374.177856 569.196838,1376.958374 
	C582.821045,1379.525635 596.518921,1381.724731 610.226440,1383.808838 
	C613.056458,1384.239014 616.072449,1383.445190 619.324768,1383.185547 
	C620.066833,1383.241089 620.486877,1383.326660 621.045349,1383.757568 
	C627.458130,1384.464600 633.732422,1384.826050 640.329712,1385.147339 
	C641.080200,1385.172241 641.507690,1385.237305 642.069214,1385.668579 
	C644.090210,1386.353882 645.969177,1386.734985 647.865845,1386.977661 
	C650.904419,1387.366577 653.954651,1387.663940 657.000000,1388.000000 
M884.619812,162.071976 
	C882.291626,163.360306 879.930786,164.593185 877.640259,165.945343 
	C850.154541,182.170868 824.418579,200.729919 801.827209,223.391983 
	C798.377808,226.852219 794.808777,228.274399 789.918945,227.966721 
	C774.800415,227.015411 759.659912,226.401871 744.524597,225.733597 
	C715.416992,224.448441 686.314636,222.984222 657.195557,222.042160 
	C637.549500,221.406555 617.878784,221.385345 598.218689,221.352310 
	C498.072571,221.184036 397.926300,221.100281 297.780060,221.000839 
	C296.330475,220.999390 294.880707,221.176559 293.083984,221.292831 
	C288.384369,371.469421 283.693878,521.354126 278.980652,671.966553 
	C281.887238,671.966553 284.173065,671.939575 286.458069,671.970520 
	C331.770508,672.584106 377.081726,673.604980 422.395416,673.728271 
	C488.543121,673.908325 554.692810,673.513489 620.841064,673.225586 
	C653.329773,673.084106 685.816895,672.585327 718.305603,672.392273 
	C721.562805,672.372925 723.485291,671.506348 724.857056,668.436401 
	C738.579102,637.727112 757.644287,610.595459 780.559143,586.110168 
	C817.990723,546.113220 862.677246,516.016113 910.916748,490.766479 
	C959.096375,465.548309 1007.505737,440.749481 1055.281982,414.786896 
	C1088.560913,396.702332 1120.000000,375.657074 1145.922974,347.501007 
	C1166.871338,324.748108 1180.531982,298.609955 1183.343750,267.202881 
	C1185.725464,240.600479 1179.432617,216.688690 1163.153931,195.581100 
	C1145.360596,172.509506 1121.834961,157.267746 1094.905151,146.972778 
	C1072.677734,138.475464 1049.562866,134.388153 1025.850586,132.743042 
	C1003.481201,131.191071 981.308838,131.875351 959.214661,135.634064 
	C933.064575,140.082764 908.543640,149.118942 884.619812,162.071976 
z"/>
<path fill="#FEEEBE" opacity="1.000000" stroke="none" 
	d="
M657.468628,1388.000000 
	C653.954651,1387.663940 650.904419,1387.366577 647.865845,1386.977661 
	C645.969177,1386.734985 644.090210,1386.353882 642.503052,1385.557373 
	C668.262634,1385.677002 693.720276,1386.456543 719.183655,1386.776123 
	C728.465149,1386.892456 737.760376,1385.913940 747.049377,1385.435059 
	C744.863281,1386.102295 742.677124,1386.769531 740.245483,1387.718506 
	C712.645752,1388.000000 685.291565,1388.000000 657.468628,1388.000000 
z"/>
<path fill="#FDE79D" opacity="1.000000" stroke="none" 
	d="
M656.917725,2.590441 
	C656.947876,2.238014 656.977966,1.885587 657.004028,1.266580 
	C681.687561,1.000000 706.375122,1.000000 731.531372,0.999999 
	C732.032349,1.333866 732.064636,1.667733 731.660645,2.402709 
	C712.920898,2.580003 694.617859,2.296982 676.313660,2.164273 
	C669.849731,2.117408 663.383118,2.437750 656.917725,2.590441 
z"/>
<path fill="#FDEEB6" opacity="1.000000" stroke="none" 
	d="
M2.645538,722.069214 
	C2.280386,722.046448 1.915234,722.023621 1.275041,722.000427 
	C1.000000,703.645752 1.000000,685.291565 1.000000,666.468628 
	C1.365604,665.974243 1.731209,665.948486 2.506554,666.381653 
	C2.657502,678.792175 2.296255,690.742920 2.181002,702.695923 
	C2.118756,709.151611 2.476998,715.611328 2.645538,722.069214 
z"/>
<path fill="#FCDF8F" opacity="1.000000" stroke="none" 
	d="
M1389.000000,697.531372 
	C1388.566650,698.005188 1388.133179,698.010376 1387.441650,697.597168 
	C1387.457397,695.086914 1387.984253,692.992371 1387.962402,690.903564 
	C1387.847046,679.894775 1387.593140,668.887329 1387.387207,657.879456 
	C1387.744263,657.923462 1388.101074,657.967468 1388.729004,658.005737 
	C1389.000000,671.020874 1389.000000,684.041809 1389.000000,697.531372 
z"/>
<path fill="#F29201" opacity="1.000000" stroke="none" 
	d="
M747.434814,1385.333984 
	C737.760376,1385.913940 728.465149,1386.892456 719.183655,1386.776123 
	C693.720276,1386.456543 668.262634,1385.677002 642.368958,1385.190918 
	C641.507690,1385.237305 641.080200,1385.172241 639.912476,1385.032227 
	C633.083801,1384.442139 626.995300,1383.927246 620.906860,1383.412109 
	C620.486877,1383.326660 620.066833,1383.241089 618.928894,1383.050781 
	C615.737854,1382.619385 613.247192,1382.390503 610.794250,1381.951294 
	C584.809875,1377.298218 558.759888,1372.969238 532.880859,1367.787598 
	C519.402649,1365.088867 506.228699,1360.870605 492.917358,1357.338623 
	C492.496613,1357.226807 492.075867,1357.115112 491.104919,1356.749756 
	C489.707855,1356.330444 488.861023,1356.164917 488.014191,1355.999268 
	C488.014191,1355.999268 487.713409,1355.784302 487.273254,1355.500366 
	C483.212067,1354.170776 479.591064,1353.125000 475.970062,1352.079346 
	C475.970062,1352.079346 475.952240,1352.008057 475.697876,1351.772461 
	C472.958801,1350.752197 470.474060,1349.967529 467.989349,1349.182739 
	C467.608307,1349.074951 467.227264,1348.967041 466.352966,1348.581299 
	C465.244781,1348.201172 464.629883,1348.098999 464.014984,1347.996704 
	C464.014984,1347.996704 463.725006,1347.779663 463.309204,1347.482910 
	C460.597565,1346.471680 458.301758,1345.757080 456.005981,1345.042480 
	C456.005981,1345.042480 455.620911,1344.878540 455.227051,1344.603882 
	C454.227142,1344.220459 453.621033,1344.111694 453.014954,1344.002930 
	C453.014954,1344.002930 452.724091,1343.785889 452.324188,1343.487305 
	C450.612549,1342.809082 449.300812,1342.429443 447.989075,1342.049683 
	C447.989075,1342.049683 447.975739,1341.992310 447.754211,1341.750732 
	C446.698792,1341.323608 445.864929,1341.138184 445.031036,1340.952759 
	C445.031036,1340.952759 445.002014,1341.000000 444.845856,1340.728760 
	C444.124847,1340.330933 443.559998,1340.204224 442.995148,1340.077515 
	C442.995148,1340.077515 442.960510,1340.007690 442.723694,1339.773193 
	C441.659760,1339.359009 440.832672,1339.179321 440.005585,1338.999634 
	C440.005585,1338.999634 440.000000,1339.000000 439.784485,1338.726807 
	C437.362488,1337.672363 435.155975,1336.890991 432.949493,1336.109619 
	C432.949493,1336.109619 432.930817,1336.029907 432.701599,1335.796997 
	C431.652344,1335.369629 430.832306,1335.175171 430.012299,1334.980713 
	C430.012299,1334.980713 430.000000,1335.000000 429.844116,1334.733887 
	C429.122559,1334.330933 428.556915,1334.194092 427.991241,1334.057251 
	C427.991241,1334.057251 427.975464,1333.996704 427.786133,1333.777100 
	C427.058594,1333.426514 426.520355,1333.295410 425.982117,1333.164307 
	C425.982117,1333.164307 425.545380,1332.993164 425.151672,1332.704834 
	C424.178619,1332.269287 423.599274,1332.122070 423.019897,1331.974976 
	C423.019897,1331.974976 422.761902,1331.745972 422.423645,1331.484131 
	C421.723511,1331.167114 421.361664,1331.112183 420.999786,1331.057129 
	C420.999786,1331.057129 420.660156,1330.857910 420.260986,1330.547363 
	C417.905823,1329.506714 415.949829,1328.776367 413.993774,1328.046143 
	C413.993774,1328.046143 413.701691,1327.822021 413.308472,1327.505249 
	C410.956329,1326.438843 408.997375,1325.689209 407.038422,1324.939697 
	C407.038422,1324.939697 407.006195,1325.002197 406.856506,1324.685791 
	C405.473297,1323.914917 404.239807,1323.460327 403.006287,1323.005615 
	C403.006256,1323.005737 402.710449,1322.806152 402.382568,1322.547729 
	C401.703156,1322.212036 401.351654,1322.134766 401.000183,1322.057373 
	C401.000183,1322.057373 400.701141,1321.825806 400.324097,1321.520996 
	C398.947052,1320.849487 397.947052,1320.482910 396.947083,1320.116333 
	C396.947083,1320.116333 396.927704,1320.036743 396.736267,1319.813843 
	C396.016266,1319.434814 395.487701,1319.278809 394.959137,1319.122681 
	C394.959137,1319.122681 394.924377,1319.044189 394.668823,1318.817627 
	C388.588745,1315.769897 382.764191,1312.948730 376.939636,1310.127563 
	C376.939636,1310.127563 376.917633,1310.047607 376.730652,1309.825195 
	C376.025482,1309.439087 375.507324,1309.275513 374.989197,1309.111816 
	C374.989197,1309.111816 374.638977,1308.910767 374.314209,1308.634277 
	C373.652863,1308.270142 373.316315,1308.182617 372.979736,1308.094971 
	C372.979736,1308.095093 372.954407,1308.019775 372.770721,1307.785156 
	C372.058014,1307.378784 371.528992,1307.207031 370.999969,1307.035278 
	C370.999969,1307.035278 370.687012,1306.839966 370.364838,1306.573486 
	C369.695618,1306.209717 369.348541,1306.112427 369.001526,1306.015015 
	C368.535370,1305.700684 368.069214,1305.386353 367.160095,1304.729858 
	C365.122925,1303.635986 363.528748,1302.884277 361.934601,1302.132690 
	C361.934601,1302.132690 361.915558,1302.050903 361.737366,1301.820801 
	C361.036865,1301.417114 360.514526,1301.243530 359.992188,1301.070068 
	C359.992188,1301.070068 359.676910,1300.864380 359.358643,1300.589355 
	C358.698425,1300.208130 358.356476,1300.101929 358.014526,1299.995728 
	C333.450562,1284.086792 308.846680,1268.238892 284.355713,1252.218384 
	C279.352509,1248.945435 274.575562,1245.247925 270.099548,1241.288208 
	C268.383911,1239.770264 266.834259,1236.966431 266.844360,1234.756104 
	C267.114777,1175.435303 267.464539,1116.113892 268.098053,1056.795898 
	C268.457458,1023.145264 269.236053,989.497742 270.012177,955.853210 
	C271.291473,900.393738 272.689941,844.936951 274.105530,789.480713 
	C274.607056,769.833252 275.301453,750.190735 275.922791,730.546448 
	C275.963928,729.245789 276.133087,727.949219 276.254791,726.507690 
	C419.140808,720.863342 561.811646,723.342590 705.328247,725.730591 
	C704.022766,733.398132 702.628723,740.486389 701.634949,747.630310 
	C698.740417,768.437622 697.535645,789.306030 698.617554,810.346313 
	C699.741089,832.194153 702.772217,853.670837 708.565979,874.769470 
	C720.412781,917.910950 742.419556,955.137695 773.493652,987.197205 
	C816.247375,1031.306885 868.524109,1057.511353 928.203369,1069.883789 
	C951.868103,1074.789795 975.799866,1077.459106 999.961487,1078.009033 
	C1015.445679,1078.361450 1030.937012,1079.069824 1046.415771,1078.876343 
	C1116.895386,1077.995361 1181.683105,1058.301514 1240.744629,1019.701599 
	C1276.615234,996.258179 1308.790649,968.452026 1338.752197,937.954163 
	C1340.190308,936.490295 1341.919556,935.312439 1344.482788,934.591370 
	C1343.932251,937.131897 1343.708130,939.798462 1342.783569,942.194702 
	C1315.351807,1013.285767 1277.430542,1078.235962 1228.702637,1136.856201 
	C1181.796387,1193.284912 1127.335693,1241.109497 1064.900757,1280.712646 
	C1064.150269,1281.247803 1063.891602,1281.498657 1063.632812,1281.749390 
	C1063.632812,1281.749390 1063.288086,1281.847168 1062.842651,1281.976929 
	C1061.604248,1282.740356 1060.811401,1283.374146 1060.018555,1284.007935 
	C1060.018555,1284.007935 1060.000000,1283.997681 1059.656738,1284.031738 
	C1057.289673,1285.421753 1055.265869,1286.777832 1053.241943,1288.133911 
	C1053.241943,1288.133911 1053.119751,1288.095215 1052.844971,1288.150146 
	C1052.366333,1288.461426 1052.162476,1288.717896 1051.958618,1288.974243 
	C1051.440430,1289.196655 1050.922241,1289.419067 1049.942871,1289.859619 
	C1049.255371,1290.345459 1049.029053,1290.613037 1048.802734,1290.880493 
	C1048.286987,1291.070679 1047.771240,1291.260864 1046.771851,1291.701416 
	C1045.443604,1292.574829 1044.599121,1293.197632 1043.754517,1293.820557 
	C1043.754517,1293.820557 1043.366821,1293.923950 1042.894531,1294.034912 
	C1041.596313,1294.737549 1040.770386,1295.329224 1039.944458,1295.920898 
	C1039.944458,1295.920898 1039.995117,1295.998535 1039.685791,1295.981934 
	C1039.129761,1296.227051 1038.882935,1296.488892 1038.636230,1296.750732 
	C1038.636230,1296.750732 1038.284302,1296.822266 1037.852661,1296.909180 
	C1037.004639,1297.363281 1036.588257,1297.730347 1036.171875,1298.097412 
	C1036.171875,1298.097290 1036.083008,1298.048950 1035.806030,1298.083496 
	C1035.321533,1298.381958 1035.114014,1298.645752 1034.906372,1298.909546 
	C1034.906372,1298.909546 1034.988037,1298.996704 1034.654297,1298.942627 
	C1033.869507,1299.243164 1033.418213,1299.597778 1032.967041,1299.952393 
	C1032.967041,1299.952393 1033.000000,1300.000000 1032.699219,1299.994995 
	C1032.137329,1300.241821 1031.876099,1300.493652 1031.614746,1300.745605 
	C1031.614868,1300.745605 1031.275391,1300.805176 1030.857422,1300.903076 
	C1030.181885,1301.253296 1029.924438,1301.505615 1029.666992,1301.757812 
	C1029.666992,1301.757812 1029.305664,1301.842773 1028.803467,1301.970459 
	C1025.747681,1303.654175 1023.194092,1305.210449 1020.640564,1306.766724 
	C1020.640564,1306.766724 1020.292603,1306.827026 1019.847412,1306.899658 
	C1018.952820,1307.324951 1018.503479,1307.677734 1018.054077,1308.030518 
	C1018.054077,1308.030518 1018.013794,1307.993530 1017.691528,1308.014160 
	C1016.469604,1308.604980 1015.569824,1309.175049 1014.670044,1309.745117 
	C1014.670105,1309.745117 1014.304199,1309.829834 1013.831543,1309.950806 
	C1012.295166,1310.746948 1011.231506,1311.421997 1010.167847,1312.097168 
	C1010.167847,1312.097168 1010.089966,1312.052490 1009.723267,1312.102051 
	C1006.970947,1313.473633 1004.585388,1314.795654 1002.199829,1316.117676 
	C1002.199829,1316.117676 1002.113647,1316.061523 1001.738098,1316.092651 
	C998.935608,1317.430420 996.508667,1318.736938 994.081726,1320.043457 
	C994.081726,1320.043457 994.030579,1319.997803 993.676453,1320.023560 
	C991.541687,1321.025391 989.760986,1322.001465 987.980347,1322.977539 
	C987.980347,1322.977539 988.000000,1323.000000 987.629639,1322.970215 
	C985.220581,1323.989380 983.181824,1325.038452 981.143066,1326.087402 
	C981.143066,1326.087402 981.071594,1326.041626 980.779297,1326.055298 
	C980.225708,1326.314453 979.964478,1326.559937 979.703247,1326.805420 
	C979.703247,1326.805420 979.327881,1326.847534 978.880249,1326.915161 
	C978.136719,1327.203613 977.840759,1327.424438 977.544800,1327.645264 
	C977.544800,1327.645264 977.219116,1327.725708 976.741760,1327.835693 
	C974.402832,1328.889526 972.541321,1329.833496 970.679810,1330.777344 
	C970.679749,1330.777344 970.311462,1330.818359 969.781982,1330.885620 
	C966.482605,1332.281128 963.712708,1333.609253 960.942810,1334.937378 
	C960.942810,1334.937378 960.987671,1335.003540 960.652893,1334.939941 
	C959.784485,1335.178223 959.250854,1335.480347 958.717285,1335.782471 
	C958.717224,1335.782349 958.330139,1335.841553 957.817505,1335.917480 
	C955.898132,1336.677979 954.491394,1337.362549 953.084717,1338.047119 
	C953.084717,1338.047119 953.034668,1337.998901 952.683350,1338.008179 
	C950.916260,1338.691528 949.500427,1339.365479 948.084595,1340.039429 
	C948.084595,1340.039429 948.029297,1339.999634 947.651184,1340.000854 
	C945.122009,1340.958496 942.970947,1341.914917 940.819946,1342.871338 
	C940.819946,1342.871460 940.394897,1342.912231 939.859863,1342.956055 
	C938.131409,1343.606812 936.937927,1344.213745 935.744507,1344.820801 
	C935.744507,1344.820801 935.350952,1344.857300 934.791870,1344.910156 
	C930.835327,1346.318726 927.437927,1347.674316 924.040527,1349.029907 
	C924.040527,1349.029907 924.015869,1348.994507 923.691223,1348.966187 
	C922.806396,1349.210571 922.246216,1349.483154 921.685974,1349.755737 
	C921.685974,1349.755737 921.306763,1349.805176 920.761047,1349.867310 
	C916.491089,1351.286865 912.766846,1352.644287 909.042664,1354.001709 
	C909.042664,1354.001831 909.003357,1353.981445 908.601685,1353.957031 
	C903.373535,1355.554932 898.547119,1357.177368 893.720642,1358.799805 
	C893.720642,1358.799805 893.333069,1358.817261 892.789124,1358.856079 
	C890.432129,1359.551270 888.619080,1360.207642 886.805969,1360.864014 
	C886.805969,1360.864014 886.386719,1360.879150 885.792908,1360.907715 
	C852.906189,1369.842407 820.156799,1376.548950 787.005188,1381.317749 
	C786.567871,1381.353027 786.130554,1381.388428 785.012329,1381.472168 
	C779.885864,1382.096802 775.440430,1382.672852 770.994934,1383.248779 
	C770.566345,1383.254272 770.137817,1383.259766 768.993408,1383.279663 
	C762.517029,1383.923218 756.756470,1384.552246 750.995850,1385.181396 
	C749.937317,1385.198608 748.878723,1385.215820 747.434814,1385.333984 
z"/>
<path fill="#F29201" opacity="1.000000" stroke="none" 
	d="
M884.958374,161.920471 
	C908.543640,149.118942 933.064575,140.082764 959.214661,135.634064 
	C981.308838,131.875351 1003.481201,131.191071 1025.850586,132.743042 
	C1049.562866,134.388153 1072.677734,138.475464 1094.905151,146.972778 
	C1121.834961,157.267746 1145.360596,172.509506 1163.153931,195.581100 
	C1179.432617,216.688690 1185.725464,240.600479 1183.343750,267.202881 
	C1180.531982,298.609955 1166.871338,324.748108 1145.922974,347.501007 
	C1120.000000,375.657074 1088.560913,396.702332 1055.281982,414.786896 
	C1007.505737,440.749481 959.096375,465.548309 910.916748,490.766479 
	C862.677246,516.016113 817.990723,546.113220 780.559143,586.110168 
	C757.644287,610.595459 738.579102,637.727112 724.857056,668.436401 
	C723.485291,671.506348 721.562805,672.372925 718.305603,672.392273 
	C685.816895,672.585327 653.329773,673.084106 620.841064,673.225586 
	C554.692810,673.513489 488.543121,673.908325 422.395416,673.728271 
	C377.081726,673.604980 331.770508,672.584106 286.458069,671.970520 
	C284.173065,671.939575 281.887238,671.966553 278.980652,671.966553 
	C283.693878,521.354126 288.384369,371.469421 293.083984,221.292831 
	C294.880707,221.176559 296.330475,220.999390 297.780060,221.000839 
	C397.926300,221.100281 498.072571,221.184036 598.218689,221.352310 
	C617.878784,221.385345 637.549500,221.406555 657.195557,222.042160 
	C686.314636,222.984222 715.416992,224.448441 744.524597,225.733597 
	C759.659912,226.401871 774.800415,227.015411 789.918945,227.966721 
	C794.808777,228.274399 798.377808,226.852219 801.827209,223.391983 
	C824.418579,200.729919 850.154541,182.170868 877.640259,165.945343 
	C879.930786,164.593185 882.291626,163.360306 884.958374,161.920471 
z"/>
<path fill="#F29201" opacity="1.000000" stroke="none" 
	d="
M1387.320801,657.465942 
	C1387.593140,668.887329 1387.847046,679.894775 1387.962402,690.903564 
	C1387.984253,692.992371 1387.457397,695.086914 1387.115234,697.590942 
	C1363.225098,722.012756 1339.653687,746.277100 1315.524902,769.973938 
	C1276.398438,808.399963 1235.851074,845.234497 1191.263916,877.361206 
	C1160.225220,899.725708 1127.620483,919.286621 1091.194946,931.667236 
	C1060.795166,941.999756 1029.589722,946.411865 997.391602,944.343994 
	C967.248657,942.408142 938.444214,935.980774 912.189636,920.698669 
	C882.270996,903.283691 858.641113,879.829163 847.147522,846.423767 
	C834.099670,808.501038 839.241943,771.930725 858.238647,737.144531 
	C874.766296,706.879883 899.083130,683.574829 926.116333,662.804626 
	C953.556702,641.721619 983.801514,625.281372 1014.111145,608.849609 
	C1061.486816,583.165894 1109.060059,557.787720 1155.643677,530.720764 
	C1193.324341,508.826935 1227.851074,482.357239 1257.459839,449.980499 
	C1278.013062,427.505981 1293.944580,402.164062 1304.971558,373.756622 
	C1305.498169,372.400116 1306.131226,371.084869 1307.192505,368.657898 
	C1353.973511,456.776947 1380.084106,549.690735 1386.933716,648.932617 
	C1386.942627,650.506165 1387.028076,651.269470 1387.113403,652.032776 
	C1387.160400,653.705994 1387.207397,655.379211 1387.320801,657.465942 
z"/>
<path fill="#F29201" opacity="1.000000" stroke="none" 
	d="
M2.712729,722.475342 
	C2.476998,715.611328 2.118756,709.151611 2.181002,702.695923 
	C2.296255,690.742920 2.657502,678.792175 2.782026,666.385742 
	C2.727011,664.885559 2.806264,663.840210 2.967598,661.968506 
	C3.568712,652.394653 4.087744,643.647034 4.606775,634.899475 
	C4.717508,633.860840 4.828241,632.822266 5.026659,630.991821 
	C6.966177,615.121826 8.818011,600.043640 10.669846,584.965515 
	C10.749444,584.531616 10.829043,584.097778 11.042315,582.977966 
	C11.678455,579.185181 12.180924,576.078247 12.683396,572.971375 
	C12.794621,572.227478 12.905843,571.483521 13.222910,570.060181 
	C15.966582,557.592712 18.441595,545.790649 21.063503,534.021362 
	C22.926170,525.660156 24.986933,517.343140 26.959278,509.006439 
	C26.959276,509.006439 27.112156,508.599091 27.398308,508.139099 
	C30.779985,497.120667 33.875511,486.562256 36.971039,476.003845 
	C36.971043,476.003845 37.140587,475.640045 37.448265,475.219788 
	C38.859097,471.207916 39.962254,467.616272 41.065411,464.024628 
	C49.822300,442.824463 57.853470,421.288483 67.478668,400.490143 
	C91.714943,348.119843 122.505478,299.777985 159.172653,255.189133 
	C179.841919,230.054398 202.041611,206.378815 226.057571,184.413193 
	C227.353546,183.227875 228.653061,182.046402 230.702927,180.177551 
	C230.854767,182.817566 231.034149,184.389191 231.022537,185.959427 
	C230.687378,231.285690 230.583374,276.615509 229.912598,321.936920 
	C229.219772,368.748077 228.132858,415.555176 226.921875,462.356323 
	C225.797348,505.816376 224.284317,549.266357 222.937668,592.720642 
	C221.957397,624.352295 220.970352,655.983643 219.984940,687.615173 
	C218.641647,730.734375 217.293884,773.853455 215.954102,816.972839 
	C214.950562,849.270203 213.943848,881.567505 212.961884,913.865540 
	C211.949524,947.164368 210.943695,980.463379 209.974869,1013.763489 
	C208.952698,1048.896729 208.002808,1084.031982 206.972534,1119.165039 
	C206.367081,1139.810669 205.668488,1160.453735 204.999405,1181.097534 
	C204.979523,1181.710815 204.820831,1182.319580 204.550964,1184.074219 
	C196.796616,1175.895020 189.504990,1168.479980 182.517807,1160.788208 
	C143.478439,1117.812866 110.185173,1070.771973 82.916275,1019.494263 
	C53.071434,963.372620 31.335777,904.274231 17.863279,842.145447 
	C17.687000,841.332520 17.426708,840.537781 17.161392,838.942566 
	C14.358418,822.761597 11.599687,807.372681 8.840954,791.983704 
	C8.827795,791.562805 8.814635,791.141968 8.812997,790.003174 
	C7.453229,777.851074 6.081943,766.416870 4.710656,754.982666 
	C4.708143,754.565857 4.705629,754.148987 4.733160,753.014648 
	C4.287373,747.489929 3.811542,742.682800 3.339951,737.425049 
	C3.165399,733.646606 2.986607,730.318726 2.807816,726.990906 
	C2.798519,725.621094 2.789220,724.251343 2.712729,722.475342 
z"/>
<path fill="#F29202" opacity="1.000000" stroke="none" 
	d="
M656.515625,2.670792 
	C663.383118,2.437750 669.849731,2.117408 676.313660,2.164273 
	C694.617859,2.296982 712.920898,2.580003 731.639343,2.654738 
	C734.074951,2.640972 736.095703,2.776286 738.938965,3.010116 
	C740.839417,3.053449 741.917419,2.998265 742.995361,2.943081 
	C780.653992,6.034590 817.989563,11.211012 855.842834,20.417938 
	C847.091248,23.960022 839.135315,26.916817 831.393066,30.354710 
	C759.971375,62.068882 697.658447,105.915596 649.096130,167.903671 
	C645.996155,171.860657 642.773376,173.284012 637.805237,173.281830 
	C596.312378,173.263535 554.819031,173.708328 513.326355,173.659821 
	C423.835663,173.555222 334.345184,173.240158 244.854645,173.011688 
	C243.528732,173.008301 242.202820,173.011246 239.280746,173.011246 
	C241.921280,170.571960 243.576706,168.929993 245.347275,167.423340 
	C305.472748,116.260262 372.255646,76.232193 445.902374,47.742264 
	C493.048584,29.503944 541.648193,16.593586 591.645325,9.207567 
	C609.724060,6.536818 627.979126,5.059384 646.993408,3.087397 
	C649.231384,3.035568 650.629700,2.933769 652.027954,2.831969 
	C653.389832,2.805026 654.751709,2.778084 656.515625,2.670792 
z"/>
<path fill="#FEEEBE" opacity="1.000000" stroke="none" 
	d="
M493.016541,1357.673096 
	C506.228699,1360.870605 519.402649,1365.088867 532.880859,1367.787598 
	C558.759888,1372.969238 584.809875,1377.298218 610.794250,1381.951294 
	C613.247192,1382.390503 615.737854,1382.619385 618.606873,1383.080811 
	C616.072449,1383.445190 613.056458,1384.239014 610.226440,1383.808838 
	C596.518921,1381.724731 582.821045,1379.525635 569.196838,1376.958374 
	C554.440918,1374.177856 539.674011,1371.338989 525.094116,1367.779541 
	C514.283752,1365.140259 503.764618,1361.308228 493.016541,1357.673096 
z"/>
<path fill="#FEEEBE" opacity="1.000000" stroke="none" 
	d="
M787.322937,1381.542114 
	C820.156799,1376.548950 852.906189,1369.842407 885.600220,1360.990845 
	C881.613342,1362.636597 877.321899,1364.609863 872.819397,1365.748047 
	C858.960205,1369.251587 845.120605,1372.973389 831.083679,1375.594482 
	C816.719360,1378.276855 802.130981,1379.759033 787.322937,1381.542114 
z"/>
<path fill="#FDEEB6" opacity="1.000000" stroke="none" 
	d="
M26.682125,509.226410 
	C24.986933,517.343140 22.926170,525.660156 21.063503,534.021362 
	C18.441595,545.790649 15.966582,557.592712 13.210217,569.683105 
	C13.400952,566.001953 13.417534,561.929993 14.290844,558.051025 
	C17.280437,544.772156 20.540949,531.553772 23.769211,518.329590 
	C24.500820,515.332642 25.518799,512.405579 26.682125,509.226410 
z"/>
<path fill="#FDE9B1" opacity="1.000000" stroke="none" 
	d="
M8.606298,792.290588 
	C11.599687,807.372681 14.358418,822.761597 17.051123,838.567688 
	C15.590249,833.265198 14.045454,827.577148 12.837023,821.818420 
	C11.178814,813.916199 9.711089,805.971802 8.313477,798.018799 
	C8.006003,796.269165 8.335486,794.407532 8.606298,792.290588 
z"/>
<path fill="#FDEEB6" opacity="1.000000" stroke="none" 
	d="
M10.372591,585.182556 
	C8.818011,600.043640 6.966177,615.121826 4.998694,630.599609 
	C4.645067,630.572815 4.154833,630.113403 4.205514,629.724548 
	C6.131228,614.945557 8.106599,600.172974 10.372591,585.182556 
z"/>
<path fill="#FDE9B1" opacity="1.000000" stroke="none" 
	d="
M4.479119,755.307983 
	C6.081943,766.416870 7.453229,777.851074 8.725151,789.698792 
	C8.163213,789.689636 7.336065,789.302002 7.291482,788.839111 
	C6.225981,777.775391 5.244410,766.703674 4.479119,755.307983 
z"/>
<path fill="#FDEEB6" opacity="1.000000" stroke="none" 
	d="
M36.694618,476.218689 
	C33.875511,486.562256 30.779985,497.120667 27.409826,507.921814 
	C28.131348,503.330963 28.798231,498.398804 30.207262,493.688721 
	C31.956627,487.840942 34.320019,482.176910 36.694618,476.218689 
z"/>
<path fill="#FDEEB6" opacity="1.000000" stroke="none" 
	d="
M4.255076,635.050903 
	C4.087744,643.647034 3.568712,652.394653 2.927096,661.576355 
	C2.557637,658.927185 1.956086,655.822510 2.139752,652.765076 
	C2.492265,646.896667 3.290214,641.055115 4.255076,635.050903 
z"/>
<path fill="#FEEEBE" opacity="1.000000" stroke="none" 
	d="
M377.006958,1310.466309 
	C382.764191,1312.948730 388.588745,1315.769897 394.634033,1318.842773 
	C388.927948,1316.331299 383.001099,1313.568115 377.006958,1310.466309 
z"/>
<path fill="#FEEEBE" opacity="1.000000" stroke="none" 
	d="
M621.045349,1383.757690 
	C626.995300,1383.927246 633.083801,1384.442139 639.589478,1385.072266 
	C633.732422,1384.826050 627.458130,1384.464600 621.045349,1383.757690 
z"/>
<path fill="#FEEEBE" opacity="1.000000" stroke="none" 
	d="
M751.314880,1385.432007 
	C756.756470,1384.552246 762.517029,1383.923218 768.692627,1383.397217 
	C763.283020,1384.227905 757.458435,1384.955322 751.314880,1385.432007 
z"/>
<path fill="#FDE9B1" opacity="1.000000" stroke="none" 
	d="
M3.335711,737.875671 
	C3.811542,742.682800 4.287373,747.489929 4.637856,752.715698 
	C4.015649,751.410522 3.318827,749.715454 3.066435,747.956543 
	C2.633611,744.940186 2.478488,741.883972 2.522020,738.395752 
	C3.003417,737.923279 3.169564,737.899475 3.335711,737.875671 
z"/>
<path fill="#FEEEBE" opacity="1.000000" stroke="none" 
	d="
M894.137695,1358.879639 
	C898.547119,1357.177368 903.373535,1355.554932 908.591858,1353.976807 
	C904.174072,1355.667358 899.364380,1357.313477 894.137695,1358.879639 
z"/>
<path fill="#FEEEBE" opacity="1.000000" stroke="none" 
	d="
M771.310364,1383.485352 
	C775.440430,1382.672852 779.885864,1382.096802 784.721313,1381.630615 
	C780.616089,1382.400757 776.120972,1383.061157 771.310364,1383.485352 
z"/>
<path fill="#FEEEBE" opacity="1.000000" stroke="none" 
	d="
M476.050171,1352.438721 
	C479.591064,1353.125000 483.212067,1354.170776 487.089844,1355.476929 
	C483.607849,1354.757690 479.869049,1353.777954 476.050171,1352.438721 
z"/>
<path fill="#FEEEBE" opacity="1.000000" stroke="none" 
	d="
M909.450562,1354.041138 
	C912.766846,1352.644287 916.491089,1351.286865 920.601074,1349.972168 
	C917.277405,1351.370117 913.567932,1352.725342 909.450562,1354.041138 
z"/>
<path fill="#FEEEBE" opacity="1.000000" stroke="none" 
	d="
M924.441406,1349.063477 
	C927.437927,1347.674316 930.835327,1346.318726 934.616455,1345.001343 
	C931.614258,1346.392090 928.228271,1347.744629 924.441406,1349.063477 
z"/>
<path fill="#FDEEB6" opacity="1.000000" stroke="none" 
	d="
M12.392989,573.171631 
	C12.180924,576.078247 11.678455,579.185181 11.023473,582.646362 
	C11.281501,579.791138 11.692042,576.581543 12.392989,573.171631 
z"/>
<path fill="#FDEEB6" opacity="1.000000" stroke="none" 
	d="
M40.776134,464.226654 
	C39.962254,467.616272 38.859097,471.207916 37.469734,475.020264 
	C38.284641,471.636871 39.385750,468.032776 40.776134,464.226654 
z"/>
<path fill="#FEEEBE" opacity="1.000000" stroke="none" 
	d="
M1021.021118,1306.818848 
	C1023.194092,1305.210449 1025.747681,1303.654175 1028.656738,1302.083984 
	C1026.475342,1303.670166 1023.938477,1305.270508 1021.021118,1306.818848 
z"/>
<path fill="#FEEEBE" opacity="1.000000" stroke="none" 
	d="
M961.325562,1334.980469 
	C963.712708,1333.609253 966.482605,1332.281128 969.625000,1330.984009 
	C967.234436,1332.351318 964.471375,1333.687500 961.325562,1334.980469 
z"/>
<path fill="#FEEEBE" opacity="1.000000" stroke="none" 
	d="
M994.462708,1320.061523 
	C996.508667,1318.736938 998.935608,1317.430420 1001.719299,1316.140503 
	C999.665283,1317.464600 997.254456,1318.772095 994.462708,1320.061523 
z"/>
<path fill="#FEEEBE" opacity="1.000000" stroke="none" 
	d="
M1002.573120,1316.119385 
	C1004.585388,1314.795654 1006.970947,1313.473633 1009.711487,1312.145508 
	C1007.693115,1313.466553 1005.319702,1314.793945 1002.573120,1316.119385 
z"/>
<path fill="#FEEEBE" opacity="1.000000" stroke="none" 
	d="
M468.163757,1349.489990 
	C470.474060,1349.967529 472.958801,1350.752197 475.670349,1351.796875 
	C473.377502,1351.303589 470.857819,1350.550415 468.163757,1349.489990 
z"/>
<path fill="#FEEEBE" opacity="1.000000" stroke="none" 
	d="
M1053.608521,1288.125244 
	C1055.265869,1286.777832 1057.289673,1285.421753 1059.658936,1284.041260 
	C1057.994507,1285.383301 1055.984741,1286.749878 1053.608521,1288.125244 
z"/>
<path fill="#FEEEBE" opacity="1.000000" stroke="none" 
	d="
M456.180450,1345.354492 
	C458.301758,1345.757080 460.597565,1346.471680 463.130188,1347.455322 
	C461.029663,1347.038208 458.692291,1346.352295 456.180450,1345.354492 
z"/>
<path fill="#FEEEBE" opacity="1.000000" stroke="none" 
	d="
M981.513794,1326.102783 
	C983.181824,1325.038452 985.220581,1323.989380 987.621277,1322.958496 
	C985.950317,1324.023682 983.917419,1325.070923 981.513794,1326.102783 
z"/>
<path fill="#FEEEBE" opacity="1.000000" stroke="none" 
	d="
M941.202271,1342.929443 
	C942.970947,1341.914917 945.122009,1340.958496 947.640686,1340.033203 
	C945.867065,1341.038818 943.725891,1342.013184 941.202271,1342.929443 
z"/>
<path fill="#FDEEB6" opacity="1.000000" stroke="none" 
	d="
M3.339951,737.425049 
	C3.169564,737.899475 3.003417,737.923279 2.591200,737.978394 
	C2.331211,734.547852 2.317293,731.085938 2.555595,727.307495 
	C2.986607,730.318726 3.165399,733.646606 3.339951,737.425049 
z"/>
<path fill="#FEEEBE" opacity="1.000000" stroke="none" 
	d="
M988.357910,1323.011963 
	C989.760986,1322.001465 991.541687,1321.025391 993.674377,1320.057861 
	C992.262817,1321.059692 990.499207,1322.053101 988.357910,1323.011963 
z"/>
<path fill="#FEEEBE" opacity="1.000000" stroke="none" 
	d="
M407.186920,1325.264404 
	C408.997375,1325.689209 410.956329,1326.438843 413.128296,1327.467407 
	C411.339386,1327.027222 409.337402,1326.308228 407.186920,1325.264404 
z"/>
<path fill="#FEEEBE" opacity="1.000000" stroke="none" 
	d="
M433.029449,1336.459473 
	C435.155975,1336.890991 437.362488,1337.672363 439.782715,1338.725342 
	C437.700745,1338.267700 435.405060,1337.538574 433.029449,1336.459473 
z"/>
<path fill="#FEEEBE" opacity="1.000000" stroke="none" 
	d="
M414.056122,1328.401123 
	C415.949829,1328.776367 417.905823,1329.506714 420.065857,1330.521484 
	C418.219360,1330.122803 416.168884,1329.439453 414.056122,1328.401123 
z"/>
<path fill="#FEEEBE" opacity="1.000000" stroke="none" 
	d="
M971.054443,1330.838379 
	C972.541321,1329.833496 974.402832,1328.889526 976.621094,1327.952148 
	C975.128235,1328.938965 973.278687,1329.919189 971.054443,1330.838379 
z"/>
<path fill="#FEEEBE" opacity="1.000000" stroke="none" 
	d="
M362.005554,1302.468018 
	C363.528748,1302.884277 365.122925,1303.635986 366.877197,1304.678955 
	C365.383698,1304.247925 363.730103,1303.525635 362.005554,1302.468018 
z"/>
<path fill="#FEEEBE" opacity="1.000000" stroke="none" 
	d="
M887.192017,1360.932617 
	C888.619080,1360.207642 890.432129,1359.551270 892.617554,1358.946655 
	C891.185974,1359.666016 889.382019,1360.333618 887.192017,1360.932617 
z"/>
<path fill="#FEEEBE" opacity="1.000000" stroke="none" 
	d="
M448.068542,1342.420166 
	C449.300812,1342.429443 450.612549,1342.809082 452.145264,1343.457275 
	C450.960144,1343.413940 449.554077,1343.102173 448.068542,1342.420166 
z"/>
<path fill="#FEEEBE" opacity="1.000000" stroke="none" 
	d="
M953.445190,1338.073853 
	C954.491394,1337.362549 955.898132,1336.677979 957.653076,1336.023804 
	C956.602783,1336.736328 955.204285,1337.418457 953.445190,1338.073853 
z"/>
<path fill="#FEEEBE" opacity="1.000000" stroke="none" 
	d="
M948.468750,1340.067017 
	C949.500427,1339.365479 950.916260,1338.691528 952.679749,1338.042725 
	C951.635986,1338.743530 950.244446,1339.419067 948.468750,1340.067017 
z"/>
<path fill="#FEEEBE" opacity="1.000000" stroke="none" 
	d="
M936.102783,1344.891846 
	C936.937927,1344.213745 938.131409,1343.606812 939.666016,1343.045532 
	C938.825073,1343.715088 937.643066,1344.338867 936.102783,1344.891846 
z"/>
<path fill="#FEEEBE" opacity="1.000000" stroke="none" 
	d="
M488.049347,1356.319092 
	C488.861023,1356.164917 489.707855,1356.330444 490.776611,1356.743164 
	C490.027191,1356.872925 489.055847,1356.755859 488.049347,1356.319092 
z"/>
<path fill="#FEEEBE" opacity="1.000000" stroke="none" 
	d="
M403.163635,1323.313477 
	C404.239807,1323.460327 405.473297,1323.914917 406.878479,1324.657593 
	C405.807068,1324.504272 404.564026,1324.062744 403.163635,1323.313477 
z"/>
<path fill="#FEEEBE" opacity="1.000000" stroke="none" 
	d="
M1010.526306,1312.105713 
	C1011.231506,1311.421997 1012.295166,1310.746948 1013.684387,1310.067627 
	C1012.968262,1310.747070 1011.926514,1311.430664 1010.526306,1312.105713 
z"/>
<path fill="#FEEEBE" opacity="1.000000" stroke="none" 
	d="
M397.023865,1320.472290 
	C397.947052,1320.482910 398.947052,1320.849487 400.139099,1321.481445 
	C399.254333,1321.440552 398.177490,1321.134399 397.023865,1320.472290 
z"/>
<path fill="#FDE79D" opacity="1.000000" stroke="none" 
	d="
M651.767090,2.613307 
	C650.629700,2.933769 649.231384,3.035568 647.421692,3.040526 
	C648.508911,2.760672 650.007629,2.577658 651.767090,2.613307 
z"/>
<path fill="#FEEEBE" opacity="1.000000" stroke="none" 
	d="
M1060.363892,1284.029297 
	C1060.811401,1283.374146 1061.604248,1282.740356 1062.712891,1282.100586 
	C1062.255493,1282.746582 1061.482300,1283.398560 1060.363892,1284.029297 
z"/>
<path fill="#FEEEBE" opacity="1.000000" stroke="none" 
	d="
M1044.127930,1293.876343 
	C1044.599121,1293.197632 1045.443604,1292.574829 1046.609131,1291.926880 
	C1046.120483,1292.578613 1045.310913,1293.255371 1044.127930,1293.876343 
z"/>
<path fill="#FEEEBE" opacity="1.000000" stroke="none" 
	d="
M1040.288574,1295.960205 
	C1040.770386,1295.329224 1041.596313,1294.737549 1042.737061,1294.159180 
	C1042.245361,1294.781372 1041.438965,1295.390381 1040.288574,1295.960205 
z"/>
<path fill="#FEEEBE" opacity="1.000000" stroke="none" 
	d="
M1015.040039,1309.818115 
	C1015.569824,1309.175049 1016.469604,1308.604980 1017.694824,1308.041260 
	C1017.150208,1308.662109 1016.280151,1309.276611 1015.040039,1309.818115 
z"/>
<path fill="#FDE79D" opacity="1.000000" stroke="none" 
	d="
M742.767090,2.719997 
	C741.917419,2.998265 740.839417,3.053449 739.371643,2.990264 
	C740.167480,2.746902 741.353149,2.621907 742.767090,2.719997 
z"/>
<path fill="#FEEEBE" opacity="1.000000" stroke="none" 
	d="
M430.193787,1335.251709 
	C430.832306,1335.175171 431.652344,1335.369629 432.669739,1335.822754 
	C432.036469,1335.895142 431.205872,1335.708862 430.193787,1335.251709 
z"/>
<path fill="#FCDF8F" opacity="1.000000" stroke="none" 
	d="
M1387.310791,651.821594 
	C1387.028076,651.269470 1386.942627,650.506165 1386.958008,649.368408 
	C1387.208740,649.866089 1387.358521,650.738220 1387.310791,651.821594 
z"/>
<path fill="#FEEEBE" opacity="1.000000" stroke="none" 
	d="
M440.197876,1339.264282 
	C440.832672,1339.179321 441.659760,1339.359009 442.690125,1339.792969 
	C442.059021,1339.874512 441.224609,1339.701660 440.197876,1339.264282 
z"/>
<path fill="#FEEEBE" opacity="1.000000" stroke="none" 
	d="
M445.219421,1341.223755 
	C445.864929,1341.138184 446.698792,1341.323608 447.731812,1341.769775 
	C447.089905,1341.851929 446.248840,1341.673340 445.219421,1341.223755 
z"/>
<path fill="#FEEEBE" opacity="1.000000" stroke="none" 
	d="
M375.138672,1309.351318 
	C375.507324,1309.275513 376.025482,1309.439087 376.695007,1309.846436 
	C376.326996,1309.923706 375.807587,1309.757324 375.138672,1309.351318 
z"/>
<path fill="#FEEEBE" opacity="1.000000" stroke="none" 
	d="
M1036.457397,1298.093018 
	C1036.588257,1297.730347 1037.004639,1297.363281 1037.708252,1297.015869 
	C1037.577881,1297.386475 1037.160278,1297.737671 1036.457397,1298.093018 
z"/>
<path fill="#FEEEBE" opacity="1.000000" stroke="none" 
	d="
M922.011841,1349.832031 
	C922.246216,1349.483154 922.806396,1349.210571 923.689941,1348.987427 
	C923.454773,1349.327393 922.896301,1349.617798 922.011841,1349.832031 
z"/>
<path fill="#FEEEBE" opacity="1.000000" stroke="none" 
	d="
M1033.275635,1299.971924 
	C1033.418213,1299.597778 1033.869507,1299.243164 1034.625244,1298.890503 
	C1034.481323,1299.258789 1034.032715,1299.625000 1033.275635,1299.971924 
z"/>
<path fill="#FEEEBE" opacity="1.000000" stroke="none" 
	d="
M464.199219,1348.267822 
	C464.629883,1348.098999 465.244781,1348.201172 466.056244,1348.557007 
	C465.629700,1348.719971 465.006592,1348.629517 464.199219,1348.267822 
z"/>
<path fill="#FEEEBE" opacity="1.000000" stroke="none" 
	d="
M395.115662,1319.362061 
	C395.487701,1319.278809 396.016266,1319.434814 396.701843,1319.835938 
	C396.329926,1319.921143 395.801025,1319.761230 395.115662,1319.362061 
z"/>
<path fill="#FEEEBE" opacity="1.000000" stroke="none" 
	d="
M453.192993,1344.271240 
	C453.621033,1344.111694 454.227142,1344.220459 455.018494,1344.586914 
	C454.592834,1344.743042 453.981934,1344.641357 453.192993,1344.271240 
z"/>
<path fill="#FEEEBE" opacity="1.000000" stroke="none" 
	d="
M360.136292,1301.316162 
	C360.514526,1301.243530 361.036865,1301.417114 361.701599,1301.842773 
	C361.322815,1301.917358 360.801605,1301.739746 360.136292,1301.316162 
z"/>
<path fill="#FEEEBE" opacity="1.000000" stroke="none" 
	d="
M443.161133,1340.330566 
	C443.559998,1340.204224 444.124847,1340.330933 444.863037,1340.706055 
	C444.466614,1340.830933 443.896851,1340.707397 443.161133,1340.330566 
z"/>
<path fill="#FEEEBE" opacity="1.000000" stroke="none" 
	d="
M371.149536,1307.282837 
	C371.528992,1307.207031 372.058014,1307.378784 372.735107,1307.802856 
	C372.355164,1307.880249 371.827118,1307.705322 371.149536,1307.282837 
z"/>
<path fill="#FEEEBE" opacity="1.000000" stroke="none" 
	d="
M1018.351440,1308.043945 
	C1018.503479,1307.677734 1018.952820,1307.324951 1019.703857,1307.002441 
	C1019.553284,1307.374146 1019.101074,1307.715820 1018.351440,1308.043945 
z"/>
<path fill="#FEEEBE" opacity="1.000000" stroke="none" 
	d="
M959.044434,1335.846313 
	C959.250854,1335.480347 959.784485,1335.178223 960.638611,1334.903076 
	C960.429993,1335.256836 959.900818,1335.583496 959.044434,1335.846313 
z"/>
<path fill="#FEEEBE" opacity="1.000000" stroke="none" 
	d="
M428.154480,1334.312012 
	C428.556915,1334.194092 429.122559,1334.330933 429.851929,1334.724609 
	C429.449677,1334.843262 428.883698,1334.704956 428.154480,1334.312012 
z"/>
<path fill="#FEEEBE" opacity="1.000000" stroke="none" 
	d="
M426.146240,1333.401123 
	C426.520355,1333.295410 427.058594,1333.426514 427.762573,1333.797729 
	C427.389008,1333.904541 426.849670,1333.771362 426.146240,1333.401123 
z"/>
<path fill="#FEEEBE" opacity="1.000000" stroke="none" 
	d="
M423.173889,1332.247803 
	C423.599274,1332.122070 424.178619,1332.269287 424.918335,1332.681152 
	C424.495087,1332.804077 423.911499,1332.662476 423.173889,1332.247803 
z"/>
<path fill="#FEEEBE" opacity="1.000000" stroke="none" 
	d="
M421.167908,1331.289307 
	C421.361664,1331.112183 421.723511,1331.167114 422.255005,1331.447998 
	C422.061737,1331.623169 421.698914,1331.572388 421.167908,1331.289307 
z"/>
<path fill="#FEEEBE" opacity="1.000000" stroke="none" 
	d="
M1063.920898,1281.754761 
	C1063.891602,1281.498657 1064.150269,1281.247803 1064.687988,1280.971436 
	C1064.714233,1281.217285 1064.461670,1281.488770 1063.920898,1281.754761 
z"/>
<path fill="#FEEEBE" opacity="1.000000" stroke="none" 
	d="
M1052.201782,1288.948975 
	C1052.162476,1288.717896 1052.366333,1288.461426 1052.824707,1288.210938 
	C1052.982178,1288.555176 1052.770752,1288.790771 1052.201782,1288.948975 
z"/>
<path fill="#FEEEBE" opacity="1.000000" stroke="none" 
	d="
M401.147491,1322.297974 
	C401.351654,1322.134766 401.703156,1322.212036 402.205688,1322.524170 
	C402.002777,1322.685425 401.648804,1322.611938 401.147491,1322.297974 
z"/>
<path fill="#FEEEBE" opacity="1.000000" stroke="none" 
	d="
M1049.070068,1290.863037 
	C1049.029053,1290.613037 1049.255371,1290.345459 1049.753174,1290.073486 
	C1049.795776,1290.327881 1049.566528,1290.586670 1049.070068,1290.863037 
z"/>
<path fill="#FEEEBE" opacity="1.000000" stroke="none" 
	d="
M979.978638,1326.822754 
	C979.964478,1326.559937 980.225708,1326.314453 980.764893,1326.095215 
	C980.779968,1326.361084 980.517029,1326.600586 979.978638,1326.822754 
z"/>
<path fill="#FEEEBE" opacity="1.000000" stroke="none" 
	d="
M977.833374,1327.695312 
	C977.840759,1327.424438 978.136719,1327.203613 978.717590,1327.011230 
	C978.708984,1327.274780 978.415405,1327.510010 977.833374,1327.695312 
z"/>
<path fill="#FEEEBE" opacity="1.000000" stroke="none" 
	d="
M1038.922241,1296.753540 
	C1038.882935,1296.488892 1039.129761,1296.227051 1039.655029,1295.947021 
	C1039.691772,1296.204712 1039.450073,1296.480591 1038.922241,1296.753540 
z"/>
<path fill="#FEEEBE" opacity="1.000000" stroke="none" 
	d="
M1035.156128,1298.890869 
	C1035.114014,1298.645752 1035.321533,1298.381958 1035.790283,1298.131592 
	C1035.836426,1298.387573 1035.621094,1298.629761 1035.156128,1298.890869 
z"/>
<path fill="#FEEEBE" opacity="1.000000" stroke="none" 
	d="
M358.142883,1300.245361 
	C358.356476,1300.101929 358.698425,1300.208130 359.173035,1300.558105 
	C358.960846,1300.699707 358.616028,1300.597290 358.142883,1300.245361 
z"/>
<path fill="#FEEEBE" opacity="1.000000" stroke="none" 
	d="
M1031.905396,1300.758301 
	C1031.876099,1300.493652 1032.137329,1300.241821 1032.679199,1299.973755 
	C1032.705200,1300.228760 1032.450562,1300.500000 1031.905396,1300.758301 
z"/>
<path fill="#FEEEBE" opacity="1.000000" stroke="none" 
	d="
M1029.946289,1301.765381 
	C1029.924438,1301.505615 1030.181885,1301.253296 1030.720215,1301.007568 
	C1030.742676,1301.266968 1030.484009,1301.520020 1029.946289,1301.765381 
z"/>
<path fill="#FEEEBE" opacity="1.000000" stroke="none" 
	d="
M369.137085,1306.262817 
	C369.348541,1306.112427 369.695618,1306.209717 370.182068,1306.548706 
	C369.971863,1306.697021 369.622253,1306.603882 369.137085,1306.262817 
z"/>
<path fill="#FEEEBE" opacity="1.000000" stroke="none" 
	d="
M373.114227,1308.326172 
	C373.316315,1308.182617 373.652863,1308.270142 374.115356,1308.599365 
	C373.910400,1308.746460 373.579559,1308.651978 373.114227,1308.326172 
z"/>
</svg>